<svg xmlns="http://www.w3.org/2000/svg" width="16.5" height="18.5" viewBox="0 0 16.5 18.5"><defs><style>.a{fill:#188c72;}</style></defs><path class="a" d="M50.575,8.578a4.669,4.669,0,0,0,2.06-3.835,5.007,5.007,0,0,0-10,0A4.669,4.669,0,0,0,44.7,8.578a7.865,7.865,0,0,0-5.31,7.313,2.685,2.685,0,0,0,2.75,2.609h11a2.685,2.685,0,0,0,2.75-2.609A7.865,7.865,0,0,0,50.575,8.578Zm-6.44-3.835a3.5,3.5,0,0,1,7,0,3.5,3.5,0,0,1-7,0Zm9,12.333h-11a1.221,1.221,0,0,1-1.25-1.186,6.759,6.759,0,0,1,13.5,0A1.221,1.221,0,0,1,53.135,17.077Z" transform="translate(-39.385)"/></svg>