<svg xmlns="http://www.w3.org/2000/svg" width="21.276" height="16.717" viewBox="0 0 21.276 16.717"><defs><style>.a{fill:#188c72;}</style></defs><g transform="translate(-2.25 -5.625)"><path class="a" d="M2.25,22.923a2.66,2.66,0,0,0,2.66,2.66H20.866a2.66,2.66,0,0,0,2.66-2.66V15.609H2.25Zm3.135-3.609a1.424,1.424,0,0,1,1.424-1.424H9.088a1.424,1.424,0,0,1,1.424,1.424v.95a1.424,1.424,0,0,1-1.424,1.424H6.809a1.424,1.424,0,0,1-1.424-1.424Z" transform="translate(0 -3.241)"/><path class="a" d="M20.866,5.625H4.91a2.66,2.66,0,0,0-2.66,2.66V9.519H23.525V8.285a2.66,2.66,0,0,0-2.66-2.66Z" transform="translate(0)"/></g></svg>