<svg xmlns="http://www.w3.org/2000/svg" width="26.303" height="15.992" viewBox="0 0 26.303 15.992"><defs><style>.a,.b{fill:#188c72;}.b{stroke:#fff;stroke-linejoin:round;}.c{stroke:none;}.d{fill:none;}</style></defs><g transform="translate(8.993 0)"><g transform="translate(0 0)"><path class="a" d="M6528.985-4558.6a.516.516,0,0,1-.229-.052.528.528,0,0,1-.3-.471l-.018-2.181h-.971a2.415,2.415,0,0,1-.328-.022v-1.074a1.413,1.413,0,0,0,.328.039h1.494a.531.531,0,0,1,.53.523l.013,1.641,2.662-2.054a.519.519,0,0,1,.324-.11h7.349a1.413,1.413,0,0,0,1.41-1.412v-8.349a1.412,1.412,0,0,0-1.41-1.411h-12.372a1.412,1.412,0,0,0-1.41,1.411v3.94H6525v-3.94a2.471,2.471,0,0,1,2.468-2.469h12.372a2.472,2.472,0,0,1,2.469,2.469v8.349a2.472,2.472,0,0,1-2.469,2.469h-7.168l-3.363,2.594A.525.525,0,0,1,6528.985-4558.6Z" transform="translate(-6525 4574.591)"/></g><rect class="a" width="10.735" height="0.767" rx="0.383" transform="translate(3.507 3.834)"/><rect class="a" width="10.735" height="0.767" rx="0.383" transform="translate(3.507 6.134)"/><rect class="a" width="10.735" height="0.767" rx="0.383" transform="translate(3.507 8.435)"/><g class="b" transform="translate(-7.993 7.818)"><rect class="c" width="7" height="2" rx="1"/><rect class="d" x="-0.5" y="-0.5" width="8" height="3" rx="1.5"/></g><g class="b" transform="translate(-4.859 10.909)"><rect class="c" width="9" height="2" rx="1"/><rect class="d" x="-0.5" y="-0.5" width="10" height="3" rx="1.5"/></g></g></svg>