<svg xmlns="http://www.w3.org/2000/svg" width="17.318" height="16" viewBox="0 0 17.318 16"><defs><style>.a{fill:#188c72;}</style></defs><g transform="translate(0 0)"><g transform="translate(0 0)"><path class="a" d="M2.471,19.477H14.847a2.473,2.473,0,0,1,2.471,2.471V30.3a2.473,2.473,0,0,1-2.471,2.471h-.969l-.019,2.181a.529.529,0,0,1-.853.415l-3.363-2.6H2.471A2.473,2.473,0,0,1,0,30.3V21.948A2.473,2.473,0,0,1,2.471,19.477ZM1.059,30.3a1.413,1.413,0,0,0,1.412,1.412H9.823a.53.53,0,0,1,.323.11l2.662,2.055.014-1.64a.529.529,0,0,1,.529-.525h1.494A1.413,1.413,0,0,0,16.259,30.3V21.948a1.413,1.413,0,0,0-1.412-1.412H2.471a1.413,1.413,0,0,0-1.412,1.412V30.3Z" transform="translate(0 -19.477)"/></g><rect class="a" width="10.741" height="0.767" rx="0.384" transform="translate(3.069 3.836)"/><rect class="a" width="10.741" height="0.767" rx="0.384" transform="translate(3.069 6.138)"/><rect class="a" width="10.741" height="0.767" rx="0.384" transform="translate(3.069 8.439)"/></g></svg>