<svg xmlns="http://www.w3.org/2000/svg" width="17.168" height="17.168" viewBox="0 0 17.168 17.168"><defs><style>.a{fill:#188c72;fill-rule:evenodd;}</style></defs><path class="a" d="M8.584,16.1A7.511,7.511,0,1,0,1.073,8.584,7.511,7.511,0,0,0,8.584,16.1Zm8.584-7.511A8.584,8.584,0,1,1,8.584,0,8.584,8.584,0,0,1,17.168,8.584Z"/><path class="a" d="M16.287,6.75a.537.537,0,0,1,.537.537v5.591l3.485,1.992a.537.537,0,0,1-.532.931L16.02,13.654a.537.537,0,0,1-.27-.466v-5.9A.537.537,0,0,1,16.287,6.75Z" transform="translate(-8.239 -3.531)"/></svg>