<svg xmlns="http://www.w3.org/2000/svg" width="16" height="19.7" viewBox="0 0 16 19.7"><defs><style>.a{fill:#d22020;}</style></defs><g transform="translate(0.003 0.002)"><path class="a" d="M222.859,154.7a.461.461,0,0,0-.461.461v8.72a.461.461,0,0,0,.923,0v-8.72A.461.461,0,0,0,222.859,154.7Zm0,0" transform="translate(-212.141 -147.567)"/><path class="a" d="M104.859,154.7a.461.461,0,0,0-.461.461v8.72a.461.461,0,0,0,.923,0v-8.72A.461.461,0,0,0,104.859,154.7Zm0,0" transform="translate(-99.585 -147.567)"/><path class="a" d="M1.307,5.863,1.759,17.23a2.545,2.545,0,0,0,.677,1.756,2.272,2.272,0,0,0,1.648.713h7.825a2.271,2.271,0,0,0,1.648-.713,2.545,2.545,0,0,0,.677-1.756l.452-11.367A1.762,1.762,0,0,0,14.234,2.4H11.872V1.821A1.812,1.812,0,0,0,10.045,0h-4.1A1.812,1.812,0,0,0,4.121,1.821V2.4H1.759a1.762,1.762,0,0,0-.452,3.466Zm10.6,12.912H4.084a1.461,1.461,0,0,1-1.4-1.546L2.23,5.9H13.764L13.312,17.23a1.461,1.461,0,0,1-1.4,1.546ZM5.044,1.821a.889.889,0,0,1,.9-.9h4.1a.889.889,0,0,1,.9.9V2.4H5.044ZM1.759,3.32H14.234a.83.83,0,0,1,0,1.661H1.759a.83.83,0,1,1,0-1.661Zm0,0" transform="translate(0)"/><path class="a" d="M163.859,154.7a.461.461,0,0,0-.461.461v8.72a.461.461,0,0,0,.923,0v-8.72A.461.461,0,0,0,163.859,154.7Zm0,0" transform="translate(-155.863 -147.567)"/></g></svg>