<svg xmlns="http://www.w3.org/2000/svg" width="18.935" height="16.23" viewBox="0 0 18.935 16.23"><defs><style>.a{fill:#188c72;}</style></defs><g transform="translate(-2.25 -4.5)"><path class="a" d="M9,15.75h7.439V17.1H9Zm0,3.381h8.791v1.352H9Z" transform="translate(-2.693 -4.488)"/><path class="a" d="M19.832,4.5H3.6A1.352,1.352,0,0,0,2.25,5.852V19.377A1.352,1.352,0,0,0,3.6,20.73h16.23a1.352,1.352,0,0,0,1.352-1.352V5.852A1.352,1.352,0,0,0,19.832,4.5Zm0,1.352V7.2H3.6V5.852ZM3.6,19.377V8.557h16.23v10.82Z" transform="translate(0)"/></g></svg>