<svg xmlns="http://www.w3.org/2000/svg" width="20.255" height="17.349" viewBox="0 0 20.255 17.349"><defs><style>.a{fill:#188c72;}</style></defs><path class="a" d="M22.485,9.328,21.039,4.991a.723.723,0,0,0-.723-.492H4.414a.723.723,0,0,0-.723.492L2.246,9.328a.86.86,0,0,0,0,.231V13.9a.723.723,0,0,0,.723.723h.723v7.228H5.137V14.619H9.474v7.228H21.039V14.619h.723a.723.723,0,0,0,.723-.723V9.559A.86.86,0,0,0,22.485,9.328ZM19.594,20.4H10.92V14.619h8.674Zm1.446-7.228H18.148V10.282H16.7v2.891H13.088V10.282H11.642v2.891H8.028V10.282H6.583v2.891H3.691v-3.5l1.243-3.73H19.8l1.243,3.73Z" transform="translate(-2.238 -4.498)"/></svg>