<svg xmlns="http://www.w3.org/2000/svg" width="14" height="14" viewBox="0 0 14 14"><defs><style>.a{fill:#188c72;}</style></defs><path class="a" d="M13.563,14H.438a.42.42,0,0,1-.308-.13.429.429,0,0,1,0-.615.42.42,0,0,1,.308-.13H.875a.835.835,0,0,0,.622-.26.85.85,0,0,0,.253-.615V.875A.841.841,0,0,1,2.01.26.841.841,0,0,1,2.625,0h8.75A.835.835,0,0,1,12,.26a.85.85,0,0,1,.253.615V12.25a.835.835,0,0,0,.26.622.85.85,0,0,0,.615.253h.438a.438.438,0,0,1,0,.875ZM5.25,2.188a.444.444,0,0,0-.437-.437H3.938a.444.444,0,0,0-.437.438v.875a.444.444,0,0,0,.438.438h.875a.444.444,0,0,0,.438-.437Zm0,2.625a.444.444,0,0,0-.437-.437H3.938a.444.444,0,0,0-.437.438v.875a.444.444,0,0,0,.438.438h.875a.444.444,0,0,0,.438-.437Zm0,2.625A.444.444,0,0,0,4.813,7H3.938a.444.444,0,0,0-.437.438v.875a.444.444,0,0,0,.438.438h.875a.444.444,0,0,0,.438-.437Zm2.625-5.25a.444.444,0,0,0-.437-.437H6.563a.444.444,0,0,0-.437.438v.875a.444.444,0,0,0,.438.438h.875a.444.444,0,0,0,.438-.437Zm0,2.625a.444.444,0,0,0-.437-.437H6.563a.444.444,0,0,0-.437.438v.875a.444.444,0,0,0,.438.438h.875a.444.444,0,0,0,.438-.437Zm0,2.625A.444.444,0,0,0,7.438,7H6.563a.444.444,0,0,0-.437.438v.875a.444.444,0,0,0,.438.438h.875a.444.444,0,0,0,.438-.437ZM8.313,10.5H5.688a.444.444,0,0,0-.437.438v1.75a.444.444,0,0,0,.438.438H8.313a.444.444,0,0,0,.438-.437v-1.75a.444.444,0,0,0-.437-.437ZM10.5,2.188a.444.444,0,0,0-.437-.437H9.188a.444.444,0,0,0-.437.438v.875a.444.444,0,0,0,.438.438h.875a.444.444,0,0,0,.438-.437Zm0,2.625a.444.444,0,0,0-.437-.437H9.188a.444.444,0,0,0-.437.438v.875a.444.444,0,0,0,.438.438h.875a.444.444,0,0,0,.438-.437Zm0,2.625A.444.444,0,0,0,10.063,7H9.188a.444.444,0,0,0-.437.438v.875a.444.444,0,0,0,.438.438h.875a.444.444,0,0,0,.438-.437Z"/></svg>