<svg xmlns="http://www.w3.org/2000/svg" width="23.701" height="16.929" viewBox="0 0 23.701 16.929"><defs><style>.a{fill:#188c72;}</style></defs><g transform="translate(-2.25 -6.75)"><path class="a" d="M25.1,13.522a.846.846,0,0,0,.846-.846V8.443A1.693,1.693,0,0,0,24.258,6.75H3.943A1.693,1.693,0,0,0,2.25,8.443v4.232a.846.846,0,0,0,.846.846,1.693,1.693,0,1,1,0,3.386.846.846,0,0,0-.846.846v4.232a1.693,1.693,0,0,0,1.693,1.693H24.258a1.693,1.693,0,0,0,1.693-1.693V17.754a.846.846,0,0,0-.846-.846,1.693,1.693,0,0,1,0-3.386Zm-.846,4.969v3.5H18.333V19.447H16.64v2.539H3.943v-3.5a3.386,3.386,0,0,0,0-6.551v-3.5h12.7v2.539h1.693V8.443h5.925v3.5a3.386,3.386,0,0,0,0,6.551Z" transform="translate(0)"/><path class="a" d="M21.375,14.625h1.693V19.7H21.375Z" transform="translate(-4.735 -1.95)"/></g></svg>