<svg xmlns="http://www.w3.org/2000/svg" width="15.258" height="18.787" viewBox="0 0 15.258 18.787"><defs><style>.a{fill:#d22020;}</style></defs><g transform="translate(0.003 0.001)"><path class="a" d="M222.838,154.7a.44.44,0,0,0-.44.44v8.315a.44.44,0,0,0,.88,0v-8.315A.44.44,0,0,0,222.838,154.7Zm0,0" transform="translate(-212.616 -147.898)"/><path class="a" d="M104.838,154.7a.44.44,0,0,0-.44.44v8.315a.44.44,0,1,0,.88,0v-8.315A.44.44,0,0,0,104.838,154.7Zm0,0" transform="translate(-99.808 -147.898)"/><path class="a" d="M1.246,5.592l.431,10.84a2.427,2.427,0,0,0,.645,1.674,2.167,2.167,0,0,0,1.572.68h7.462a2.166,2.166,0,0,0,1.572-.68,2.427,2.427,0,0,0,.645-1.674l.431-10.84a1.681,1.681,0,0,0-.431-3.305H11.322v-.55A1.728,1.728,0,0,0,9.579,0H5.672A1.728,1.728,0,0,0,3.93,1.736v.55H1.678a1.681,1.681,0,0,0-.431,3.305ZM11.357,17.905H3.895a1.393,1.393,0,0,1-1.337-1.474L2.126,5.63h11l-.431,10.8a1.393,1.393,0,0,1-1.337,1.474ZM4.81,1.736A.848.848,0,0,1,5.672.879H9.579a.848.848,0,0,1,.862.858v.55H4.81ZM1.678,3.166h11.9a.792.792,0,0,1,0,1.584H1.678a.792.792,0,1,1,0-1.584Zm0,0" transform="translate(0 0)"/><path class="a" d="M163.838,154.7a.44.44,0,0,0-.44.44v8.315a.44.44,0,0,0,.88,0v-8.315A.44.44,0,0,0,163.838,154.7Zm0,0" transform="translate(-156.212 -147.898)"/></g></svg>