<svg xmlns="http://www.w3.org/2000/svg" width="22.627" height="18.856" viewBox="0 0 22.627 18.856"><defs><style>.a{fill:#188c72;}</style></defs><path class="a" d="M18.3,18.142H9.438A2.355,2.355,0,0,1,7.174,16.43l-3-10.462A1.411,1.411,0,0,0,2.819,4.943H.471A.471.471,0,0,1,.471,4H2.819A2.355,2.355,0,0,1,5.083,5.712l.591,2.059H21.212a1.413,1.413,0,0,1,1.354,1.82l-2.028,6.93A2.354,2.354,0,0,1,18.3,18.142ZM5.944,8.714l2.137,7.46A1.409,1.409,0,0,0,9.438,17.2H18.3a1.423,1.423,0,0,0,1.335-.96l2.026-6.918a.472.472,0,0,0-.452-.607Z" transform="translate(0 -4)"/><path class="a" d="M10.886,23.771a1.886,1.886,0,1,1,1.886-1.886A1.888,1.888,0,0,1,10.886,23.771Zm0-2.828a.943.943,0,1,0,.943.943A.944.944,0,0,0,10.886,20.943Z" transform="translate(-0.515 -4.915)"/><path class="a" d="M17.886,23.771a1.886,1.886,0,1,1,1.886-1.886A1.888,1.888,0,0,1,17.886,23.771Zm0-2.828a.943.943,0,1,0,.943.943A.944.944,0,0,0,17.886,20.943Z" transform="translate(-0.915 -4.915)"/></svg>