<svg xmlns="http://www.w3.org/2000/svg" width="152.489" height="136" viewBox="0 0 152.489 136"><defs><style>.a{fill:#188c72;}.b,.c{stroke:none;}.c{fill:#a1a1a1;}</style></defs><g class="a"><path class="b" d="M 147.7315826416016 135.5 L 136.4471282958984 135.5 C 136.3794250488281 135.0560302734375 136.2267303466797 134.3603973388672 135.8866119384766 133.6606597900391 C 135.1227264404297 132.0891418457031 133.8020629882812 131.2584838867188 132.0673828125 131.2584838867188 C 130.3384246826172 131.2584838867188 128.9964294433594 132.0852203369141 128.1864624023438 133.6493225097656 C 127.8208465576172 134.3553771972656 127.646598815918 135.0575714111328 127.5661468505859 135.5 L 120.4452743530273 135.5 C 120.3758010864258 135.0562133789062 120.2201461791992 134.3596801757812 119.8764495849609 133.6590423583984 C 119.106071472168 132.0885772705078 117.7821502685547 131.2584838867188 116.0478515625 131.2584838867188 C 114.317626953125 131.2584838867188 112.9785690307617 132.0858001708984 112.1754684448242 133.6509857177734 C 111.8136520385742 134.3561248779297 111.642692565918 135.0573120117188 111.5641632080078 135.5 L 104.4437713623047 135.5 C 104.3732833862305 135.0570220947266 104.2168121337891 134.3607635498047 103.8756103515625 133.6602783203125 C 103.1102523803711 132.0890197753906 101.8038711547852 131.2584838867188 100.0976486206055 131.2584838867188 C 98.39966583251953 131.2584838867188 97.06237030029297 132.0833740234375 96.2303466796875 133.6440124511719 C 95.85200500488281 134.3536834716797 95.66403961181641 135.0594177246094 95.57517242431641 135.5 L 88.32179260253906 135.5 C 88.26116180419922 135.0552825927734 88.12019348144531 134.3633422851562 87.79386901855469 133.6670532226562 C 87.05536651611328 132.0913543701172 85.74617004394531 131.2584838867188 84.0078125 131.2584838867188 C 82.27606964111328 131.2584838867188 80.94271087646484 132.0868377685547 80.15188598632812 133.6539764404297 C 79.79692840576172 134.3574066162109 79.63173675537109 135.056884765625 79.55661010742188 135.5 L 72.33769989013672 135.5 C 72.26676177978516 135.0570678710938 72.10953521728516 134.360595703125 71.76744842529297 133.6598815917969 C 71.00046539306641 132.0888824462891 69.69330596923828 131.2584838867188 67.98731231689453 131.2584838867188 C 66.28382873535156 131.2584838867188 64.96733093261719 132.0871429443359 64.18010711669922 133.6548614501953 C 63.82686233520508 134.3583526611328 63.66017150878906 135.0577392578125 63.58364105224609 135.5 L 56.4381217956543 135.5 C 56.36219787597656 135.0576477050781 56.19651031494141 134.3585815429688 55.84428787231445 133.6553344726562 C 55.0589485168457 132.0872955322266 53.74279022216797 131.2584838867188 52.03808975219727 131.2584838867188 C 50.33658981323242 131.2584838867188 49.00836944580078 132.0850982666016 48.19702911376953 133.6489868164062 C 47.83032608032227 134.3558197021484 47.65237426757812 135.0585784912109 47.56928253173828 135.5 L 40.43080520629883 135.5 C 40.34858703613281 135.0597839355469 40.17380905151367 134.3589630126953 39.81766891479492 133.6538238525391 C 39.02621078491211 132.0867767333984 37.73646926879883 131.2584838867188 36.087890625 131.2584838867188 C 34.44654846191406 131.2584838867188 33.12904739379883 132.0818023681641 32.27779006958008 133.6394653320312 C 31.88786888122559 134.3529357910156 31.68434143066406 135.0622100830078 31.58573913574219 135.5 L 24.56230735778809 135.5 C 24.49989700317383 135.0543212890625 24.35451126098633 134.360107421875 24.0173282623291 133.6618194580078 C 23.4879093170166 132.5654144287109 22.38404846191406 131.2584838867188 20.13182830810547 131.2584838867188 C 17.87812805175781 131.2584838867188 16.78160858154297 132.5666809082031 16.25860977172852 133.6641387939453 C 15.92645359039307 134.3611297607422 15.78525543212891 135.0540771484375 15.72539043426514 135.5 L 0.5000088810920715 135.5 L 0.5000088810920715 0.5 L 15.82620620727539 0.5 C 15.92486000061035 0.8692522644996643 16.11871147155762 1.426456332206726 16.48216819763184 1.983800053596497 C 17.05856895446777 2.867719888687134 18.1776294708252 3.921380043029785 20.23534965515137 3.921380043029785 C 22.29758834838867 3.921380043029785 23.39508819580078 2.863879919052124 23.9526481628418 1.976760029792786 C 24.3005256652832 1.423245310783386 24.48153305053711 0.8700860738754272 24.57254219055176 0.5 L 31.59187316894531 0.5 C 31.68671226501465 0.8706830739974976 31.875244140625 1.426838517189026 32.2364501953125 1.983019948005676 C 32.81074905395508 2.867300033569336 33.93730926513672 3.921380043029785 36.04296875 3.921380043029785 C 38.17182922363281 3.921380043029785 39.19330978393555 2.847480058670044 39.67536926269531 1.946580052375793 C 39.96281814575195 1.409354090690613 40.09115600585938 0.8731650710105896 40.14844512939453 0.5 L 47.57108306884766 0.5 C 47.64906311035156 0.8732551336288452 47.81113433837891 1.421660423278809 48.14413070678711 1.970160007476807 C 48.68454742431641 2.860300064086914 49.78268814086914 3.921380043029785 51.94530868530273 3.921380043029785 C 53.24466705322266 3.921380043029785 54.27046966552734 3.540819883346558 54.99420928955078 2.790299892425537 C 55.72731018066406 2.030074119567871 55.95668411254883 1.078070759773254 56.02723693847656 0.5 L 63.60129165649414 0.5 C 63.70360565185547 0.8687375783920288 63.90362930297852 1.427811145782471 64.2742919921875 1.986960053443909 C 64.85929107666016 2.869440078735352 65.98748779296875 3.921380043029785 68.04004669189453 3.921380043029785 C 70.10201263427734 3.921380043029785 71.18524932861328 2.86139988899231 71.73091125488281 1.972200036048889 C 72.06909942626953 1.421063899993896 72.24234771728516 0.8704559803009033 72.32871246337891 0.5 L 79.60823059082031 0.5 C 79.71613311767578 0.8671941161155701 79.92494964599609 1.428431272506714 80.30284881591797 1.989879965782166 C 80.89591217041016 2.871020078659058 82.02536773681641 3.921380043029785 84.0380859375 3.921380043029785 C 86.06237030029297 3.921380043029785 87.13629150390625 2.861160039901733 87.68072509765625 1.971740007400513 C 88.01828765869141 1.420281410217285 88.19375610351562 0.8694661855697632 88.28202056884766 0.5 L 95.60158538818359 0.5 C 95.70487976074219 0.8696673512458801 95.90776062011719 1.430252313613892 96.28640747070312 1.990620017051697 C 96.881591796875 2.871419906616211 98.03200531005859 3.921380043029785 100.1328125 3.921380043029785 C 102.2448654174805 3.921380043029785 103.3409881591797 2.861819982528687 103.8886108398438 1.972959995269775 C 104.227912902832 1.422208070755005 104.3985137939453 0.8717451691627502 104.4825057983398 0.5 L 111.5766677856445 0.5 C 111.6594467163086 0.8731252551078796 111.8295516967773 1.424298286437988 112.1733703613281 1.975360035896301 C 112.7272491455078 2.863120079040527 113.8431091308594 3.921380043029785 116.013671875 3.921380043029785 C 118.185791015625 3.921380043029785 119.2943725585938 2.861799955368042 119.8418502807617 1.972900032997131 C 120.1804885864258 1.423089623451233 120.3463363647461 0.8733367323875427 120.4264984130859 0.5 L 127.567268371582 0.5 C 127.6421432495117 0.8735311031341553 127.79931640625 1.420323729515076 128.1265869140625 1.967380046844482 C 128.6598815917969 2.858799934387207 129.7505493164062 3.921380043029785 131.91796875 3.921380043029785 C 134.0760498046875 3.921380043029785 135.2105560302734 2.866780042648315 135.7822418212891 1.982059955596924 C 136.1407623291016 1.427266001701355 136.3234252929688 0.8722308874130249 136.4140014648438 0.5 L 148.7591552734375 0.5 L 151.9892730712891 4.625566482543945 L 151.9892730712891 131.5406646728516 L 147.7315826416016 135.5 Z"/><path class="c" d="M 0.9999847412109375 1 L 0.9999847412109375 135 L 15.30072021484375 135 C 15.38870239257812 134.5555877685547 15.54159545898438 134.0064392089844 15.80723571777344 133.4490203857422 C 16.63409423828125 131.7140045166016 18.169921875 130.7584838867188 20.1318359375 130.7584838867188 C 22.09141540527344 130.7584838867188 23.63121032714844 131.7123565673828 24.46757507324219 133.4443969726562 C 24.73766326904297 134.0037384033203 24.89407348632812 134.5548553466797 24.984619140625 135 L 31.19729614257812 135 C 31.32311248779297 134.5494384765625 31.52472686767578 133.9747619628906 31.83902740478516 133.3996734619141 C 32.7833251953125 131.6717987060547 34.25254821777344 130.7584838867188 36.087890625 130.7584838867188 C 37.91128540039062 130.7584838867188 39.39438629150391 131.7066802978516 40.26396942138672 133.4284210205078 C 40.54814147949219 133.9910736083984 40.72505950927734 134.5530853271484 40.83361053466797 135 L 47.16743469238281 135 C 47.278076171875 134.5504760742188 47.45953369140625 133.9847412109375 47.75318908691406 133.4187164306641 C 48.6431884765625 131.7032470703125 50.16493225097656 130.7584838867188 52.0380859375 130.7584838867188 C 53.91757202148438 130.7584838867188 55.42807006835938 131.7077331542969 56.29136657714844 133.4314270019531 C 56.57216644287109 133.9920654296875 56.74313354492188 134.5522308349609 56.84633636474609 135 L 63.17595672607422 135 C 63.27976226806641 134.5520935058594 63.45153045654297 133.9915771484375 63.73326873779297 133.4304962158203 C 64.5985107421875 131.7074127197266 66.10929107666016 130.7584838867188 67.98731231689453 130.7584838867188 C 69.87033081054688 130.7584838867188 71.37236785888672 131.7109832763672 72.21675109863281 133.4405212402344 C 72.49110412597656 134.0024871826172 72.65499114990234 134.5558776855469 72.75253295898438 135 L 79.1456298828125 135 C 79.24803924560547 134.5535278320312 79.41957092285156 133.995361328125 79.70550537109375 133.4287261962891 C 80.57443237304688 131.7068023681641 82.10234832763672 130.7584838867188 84.0078125 130.7584838867188 C 85.92630767822266 130.7584838867188 87.43167114257812 131.7160797119141 88.24661254882812 133.4548645019531 C 88.5069580078125 134.0103607177734 88.65815734863281 134.5574798583984 88.74592590332031 135 L 95.17843627929688 135 C 95.29510498046875 134.5491943359375 95.48509979248047 133.9790954589844 95.78915405273438 133.4087982177734 C 96.71350860595703 131.6749420166016 98.203369140625 130.7584838867188 100.0976486206055 130.7584838867188 C 101.9810943603516 130.7584838867188 103.4824295043945 131.7112731933594 104.3251037597656 133.4413452148438 C 104.5986633300781 134.0029449462891 104.7619094848633 134.5560150146484 104.8589935302734 135 L 111.1562194824219 135 C 111.2621078491211 134.5527038574219 111.4385528564453 133.9918670654297 111.7305908203125 133.4227142333984 C 112.6121520996094 131.7046661376953 114.1453704833984 130.7584838867188 116.0478515625 130.7584838867188 C 117.9583435058594 130.7584838867188 119.4774475097656 131.7103729248047 120.3253326416016 133.4388427734375 C 120.6011657714844 134.0011291503906 120.7646713256836 134.5550079345703 120.861328125 135 L 127.1599197387695 135 C 127.2677841186523 134.55224609375 127.4469909667969 133.9900054931641 127.7424697875977 133.4194030761719 C 128.6310424804688 131.7034759521484 130.1669921875 130.7584838867188 132.0673828125 130.7584838867188 C 133.9790649414062 130.7584838867188 135.4951324462891 131.7115478515625 136.3362884521484 133.4420776367188 C 136.6089172363281 134.0029754638672 136.7699127197266 134.5555267333984 136.8647766113281 135 L 147.5350189208984 135 L 151.4892425537109 131.3228454589844 L 151.4892425537109 4.79803466796875 L 148.5155792236328 1 L 136.792724609375 1 C 136.6743774414062 1.367324829101562 136.4894104003906 1.808975219726562 136.2021942138672 2.253433227539062 C 135.5630950927734 3.242446899414062 134.301025390625 4.42138671875 131.91796875 4.42138671875 C 129.5162048339844 4.42138671875 128.2971954345703 3.226486206054688 127.697509765625 2.224075317382812 C 127.4387130737305 1.79150390625 127.2757415771484 1.362091064453125 127.1732406616211 1 L 120.8152770996094 1 C 120.7073287963867 1.3642578125 120.5366668701172 1.798202514648438 120.2675704956055 2.235122680664062 C 119.6532745361328 3.23248291015625 118.4166107177734 4.42138671875 116.013671875 4.42138671875 C 113.6138458251953 4.42138671875 112.3700103759766 3.235137939453125 111.7491302490234 2.240020751953125 C 111.4752883911133 1.801101684570312 111.3009872436523 1.365142822265625 111.1904067993164 1 L 104.86767578125 1 C 104.7570114135742 1.363296508789062 104.5838775634766 1.797683715820312 104.3143081665039 2.235214233398438 C 103.6998672485352 3.2325439453125 102.4756698608398 4.42138671875 100.1328125 4.42138671875 C 97.81250762939453 4.42138671875 96.53512573242188 3.251754760742188 95.87213134765625 2.270553588867188 C 95.56658935546875 1.818389892578125 95.36543273925781 1.369125366210938 95.23487091064453 1 L 88.66317749023438 1 C 88.54986572265625 1.361419677734375 88.37497711181641 1.795272827148438 88.10717010498047 2.232772827148438 C 87.49600982666016 3.231201171875 86.2939453125 4.42138671875 84.0380859375 4.42138671875 C 81.80538940429688 4.42138671875 80.54892730712891 3.250946044921875 79.88804626464844 2.269058227539062 C 79.58336639404297 1.816390991210938 79.37953186035156 1.367233276367188 79.24580383300781 1 L 72.71165466308594 1 C 72.59954071044922 1.362228393554688 72.42552185058594 1.79620361328125 72.15706634521484 2.23370361328125 C 71.54464721679688 3.231719970703125 70.33326721191406 4.42138671875 68.04003143310547 4.42138671875 C 65.76563262939453 4.42138671875 64.51020812988281 3.247756958007812 63.85755157470703 2.263214111328125 C 63.55942535400391 1.813491821289062 63.36219787597656 1.367080688476562 63.23362731933594 1 L 56.45291137695312 1 C 56.3194580078125 1.632965087890625 56.02005004882812 2.446807861328125 55.3541259765625 3.137374877929688 C 54.53253173828125 3.9893798828125 53.38562774658203 4.42138671875 51.9453125 4.42138671875 C 49.55012512207031 4.42138671875 48.32374572753906 3.229507446289062 47.71672821044922 2.229644775390625 C 47.45274353027344 1.794815063476562 47.28565216064453 1.363067626953125 47.18011474609375 1 L 40.56040954589844 1 C 40.47615814208984 1.353057861328125 40.33909606933594 1.765960693359375 40.11622619628906 2.182479858398438 C 39.56970977783203 3.203857421875 38.41941070556641 4.42138671875 36.04296875 4.42138671875 C 33.71292877197266 4.42138671875 32.45886993408203 3.243484497070312 31.81710815429688 2.255355834960938 C 31.52756500244141 1.809524536132812 31.33890533447266 1.366744995117188 31.21714019775391 1 L 24.95098876953125 1 C 24.83407592773438 1.36383056640625 24.65325927734375 1.801651000976562 24.37599182128906 2.242813110351562 C 23.7513427734375 3.236663818359375 22.52595520019531 4.42138671875 20.2353515625 4.42138671875 C 17.9537353515625 4.42138671875 16.70724487304688 3.244338989257812 16.06332397460938 2.256927490234375 C 15.77182006835938 1.809890747070312 15.57986450195312 1.36614990234375 15.45506286621094 1 L 0.9999847412109375 1 M -1.52587890625e-05 0 L 16.22917175292969 0 C 16.22917175292969 0 16.68524169921875 3.42138671875 20.2353515625 3.42138671875 C 23.78544616699219 3.42138671875 24.16070556640625 0 24.16070556640625 0 L 31.99999237060547 0 C 31.99999237060547 0 32.40106964111328 3.42138671875 36.04296875 3.42138671875 C 39.68486785888672 3.42138671875 39.69462585449219 0 39.69462585449219 0 L 47.99999237060547 0 C 47.99999237060547 0 48.20899200439453 3.42138671875 51.9453125 3.42138671875 C 55.68164825439453 3.42138671875 55.55731201171875 0 55.55731201171875 0 L 64.00000762939453 0 C 64.00000762939453 0 64.49608612060547 3.42138671875 68.04003143310547 3.42138671875 C 71.58399200439453 3.42138671875 71.91146850585938 0 71.91146850585938 0 L 80.00000762939453 0 C 80.00000762939453 0 80.56764984130859 3.42138671875 84.0380859375 3.42138671875 C 87.50852966308594 3.42138671875 87.86764526367188 0 87.86764526367188 0 L 96.00000762939453 0 C 96.00000762939453 0 96.49092864990234 3.42138671875 100.1328125 3.42138671875 C 103.7746887207031 3.42138671875 104.0616073608398 0 104.0616073608398 0 L 111.9999847412109 0 C 111.9999847412109 0 112.2555847167969 3.42138671875 116.013671875 3.42138671875 C 119.7717437744141 3.42138671875 119.9999847412109 0 119.9999847412109 0 L 127.9999847412109 0 C 127.9999847412109 0 128.1757659912109 3.42138671875 131.91796875 3.42138671875 C 135.66015625 3.42138671875 135.9999847412109 0 135.9999847412109 0 L 149.002685546875 0 L 152.4892425537109 4.453125 L 152.4892425537109 136 L 152.4892425537109 131.7584838867188 L 147.9281311035156 136 L 135.9999847412109 136 C 135.9999847412109 136 135.8092956542969 131.7584838867188 132.0673828125 131.7584838867188 C 128.3254699707031 131.7584838867188 127.9999847412109 136 127.9999847412109 136 L 119.9999847412109 136 C 119.9999847412109 136 119.7908325195312 131.7584838867188 116.0478515625 131.7584838867188 C 112.3048706054688 131.7584838867188 111.9999847412109 136 111.9999847412109 136 L 103.9999847412109 136 C 103.9999847412109 136 103.7703704833984 131.7584838867188 100.0976486206055 131.7584838867188 C 96.42494964599609 131.7584838867188 96.00000762939453 136 96.00000762939453 136 L 87.8671875 136 C 87.8671875 136 87.75078582763672 131.7584838867188 84.0078125 131.7584838867188 C 80.26484680175781 131.7584838867188 79.9959716796875 136 79.9959716796875 136 L 71.8944091796875 136 C 71.8944091796875 136 71.66001129150391 131.7584838867188 67.98731231689453 131.7584838867188 C 64.31459045410156 131.7584838867188 64.02111053466797 136 64.02111053466797 136 L 56.00000762939453 136 C 56.00000762939453 136 55.71324920654297 131.7584838867188 52.0380859375 131.7584838867188 C 48.36290740966797 131.7584838867188 47.99999237060547 136 47.99999237060547 136 L 39.99999237060547 136 C 39.99999237060547 136 39.62764739990234 131.7584838867188 36.087890625 131.7584838867188 C 32.54812622070312 131.7584838867188 31.99999237060547 136 31.99999237060547 136 L 24.10888671875 136 C 24.10888671875 136 23.98971557617188 131.7584838867188 20.1318359375 131.7584838867188 C 16.27395629882812 131.7584838867188 16.18150329589844 136 16.18150329589844 136 L -1.52587890625e-05 136 L -1.52587890625e-05 0 Z M 152.4892425537109 0 L 152.4892425537109 4.453125 L 152.4892425537109 0 Z"/></g></svg>